<svg xmlns="http://www.w3.org/2000/svg" xmlns:xlink="http://www.w3.org/1999/xlink" width="500" zoomAndPan="magnify" viewBox="0 0 375 374.999991" height="500" preserveAspectRatio="xMidYMid meet" version="1.2"><defs><clipPath id="4f2f7f48ba"><path d="M 64.460938 64.460938 L 333.257812 64.460938 L 333.257812 333.257812 L 64.460938 333.257812 Z M 64.460938 64.460938 "/></clipPath><clipPath id="963c5c4e83"><path d="M 41.742188 41.742188 L 317.980469 41.742188 L 317.980469 50.355469 L 41.742188 50.355469 Z M 309.183594 50.355469 L 317.980469 50.355469 L 317.980469 309.183594 L 309.183594 309.183594 Z M 41.742188 50.355469 L 50.355469 50.355469 L 50.355469 309.183594 L 41.742188 309.183594 Z M 41.742188 309.183594 L 317.980469 309.183594 L 317.980469 317.980469 L 41.742188 317.980469 Z M 41.742188 309.183594 "/></clipPath></defs><g id="0e2f5c565b"><g clip-rule="nonzero" clip-path="url(#4f2f7f48ba)"><path style=" stroke:none;fill-rule:nonzero;fill:#ffffff;fill-opacity:1;" d="M 64.460938 64.460938 L 333.257812 64.460938 L 333.257812 333.257812 L 64.460938 333.257812 Z M 64.460938 64.460938 "/></g><g clip-rule="nonzero" clip-path="url(#963c5c4e83)"><path style=" stroke:none;fill-rule:nonzero;fill:#41b6e6;fill-opacity:1;" d="M 41.742188 41.742188 L 317.980469 41.742188 L 317.980469 317.980469 L 41.742188 317.980469 Z M 41.742188 41.742188 "/></g><g style="fill:#005eb8;fill-opacity:1;"><g transform="translate(85.581306, 129.37647)"><path style="stroke:none" d="M 3.84375 0 L 3.84375 -42.625 L 36.59375 -42.625 L 36.59375 -34.953125 L 12.671875 -34.953125 L 12.671875 -25.203125 L 28.4375 -25.203125 L 28.4375 -17.78125 L 12.671875 -17.78125 L 12.671875 -7.671875 L 36.84375 -7.671875 L 36.84375 0 Z M 3.84375 0 "/></g></g><g style="fill:#005eb8;fill-opacity:1;"><g transform="translate(125.213567, 129.37647)"><path style="stroke:none" d="M 17.046875 0 L -0.25 -42.625 L 9.3125 -42.625 L 22.34375 -8.953125 L 35.6875 -42.625 L 44.8125 -42.625 L 27.28125 0 Z M 17.046875 0 "/></g></g><g style="fill:#005eb8;fill-opacity:1;"><g transform="translate(170.142302, 129.37647)"><path style="stroke:none" d="M 3.84375 0 L 3.84375 -42.625 L 36.59375 -42.625 L 36.59375 -34.953125 L 12.671875 -34.953125 L 12.671875 -25.203125 L 28.4375 -25.203125 L 28.4375 -17.78125 L 12.671875 -17.78125 L 12.671875 -7.671875 L 36.84375 -7.671875 L 36.84375 0 Z M 3.84375 0 "/></g></g><g style="fill:#005eb8;fill-opacity:1;"><g transform="translate(209.774563, 129.37647)"><path style="stroke:none" d="M 3.84375 0 L 3.84375 -42.625 L 24.65625 -42.625 C 26.8125 -42.625 28.789062 -42.296875 30.59375 -41.640625 C 32.40625 -40.992188 33.957031 -40.09375 35.25 -38.9375 C 36.550781 -37.78125 37.566406 -36.390625 38.296875 -34.765625 C 39.023438 -33.140625 39.390625 -31.351562 39.390625 -29.40625 C 39.390625 -26.726562 38.628906 -24.332031 37.109375 -22.21875 C 35.585938 -20.113281 33.566406 -18.550781 31.046875 -17.53125 L 40.5 0 L 30.625 0 L 22.28125 -16.3125 L 12.671875 -16.3125 L 12.671875 0 Z M 23.875 -35.015625 L 12.671875 -35.015625 L 12.671875 -23.5625 L 23.875 -23.5625 C 25.863281 -23.5625 27.457031 -24.085938 28.65625 -25.140625 C 29.851562 -26.203125 30.453125 -27.582031 30.453125 -29.28125 C 30.453125 -30.988281 29.851562 -32.367188 28.65625 -33.421875 C 27.457031 -34.484375 25.863281 -35.015625 23.875 -35.015625 Z M 23.875 -35.015625 "/></g></g><g style="fill:#005eb8;fill-opacity:1;"><g transform="translate(251.476716, 129.37647)"><path style="stroke:none" d="M 17.046875 0 L 17.046875 -16.3125 L -0.359375 -42.625 L 9.796875 -42.625 L 21.734375 -24.109375 L 33.734375 -42.625 L 43.359375 -42.625 L 25.875 -16.25 L 25.875 0 Z M 17.046875 0 "/></g></g><g style="fill:#005eb8;fill-opacity:1;"><g transform="translate(85.581306, 184.126466)"><path style="stroke:none" d="M 1.09375 -34.828125 L 1.09375 -42.625 L 38.609375 -42.625 L 38.609375 -34.828125 L 24.296875 -34.828125 L 24.296875 0 L 15.46875 0 L 15.46875 -34.828125 Z M 1.09375 -34.828125 "/></g></g><g style="fill:#005eb8;fill-opacity:1;"><g transform="translate(125.639721, 184.126466)"><path style="stroke:none" d="M 3.84375 0 L 3.84375 -42.625 L 12.671875 -42.625 L 12.671875 -25.515625 L 32.265625 -25.515625 L 32.265625 -42.625 L 41.09375 -42.625 L 41.09375 0 L 32.265625 0 L 32.265625 -17.421875 L 12.671875 -17.421875 L 12.671875 0 Z M 3.84375 0 "/></g></g><g style="fill:#005eb8;fill-opacity:1;"><g transform="translate(170.994611, 184.126466)"><path style="stroke:none" d="M 3.84375 0 L 3.84375 -42.625 L 12.671875 -42.625 L 12.671875 0 Z M 3.84375 0 "/></g></g><g style="fill:#005eb8;fill-opacity:1;"><g transform="translate(187.919014, 184.126466)"><path style="stroke:none" d="M 3.84375 -42.625 L 12.234375 -42.625 L 33.421875 -15.046875 L 33.421875 -42.625 L 41.703125 -42.625 L 41.703125 0 L 33.921875 0 L 12.171875 -28.5 L 12.171875 0 L 3.84375 0 Z M 3.84375 -42.625 "/></g></g><g style="fill:#005eb8;fill-opacity:1;"><g transform="translate(233.882695, 184.126466)"><path style="stroke:none" d="M 46.15625 -21.25 C 46.15625 -18.125 45.613281 -15.210938 44.53125 -12.515625 C 43.457031 -9.816406 41.976562 -7.5 40.09375 -5.5625 C 38.207031 -3.632812 35.941406 -2.113281 33.296875 -1 C 30.660156 0.113281 27.820312 0.671875 24.78125 0.671875 C 21.613281 0.671875 18.648438 0.101562 15.890625 -1.03125 C 13.128906 -2.164062 10.742188 -3.71875 8.734375 -5.6875 C 6.722656 -7.65625 5.128906 -9.976562 3.953125 -12.65625 C 2.773438 -15.34375 2.1875 -18.226562 2.1875 -21.3125 C 2.1875 -24.394531 2.765625 -27.273438 3.921875 -29.953125 C 5.078125 -32.640625 6.660156 -34.96875 8.671875 -36.9375 C 10.679688 -38.90625 13.066406 -40.457031 15.828125 -41.59375 C 18.585938 -42.726562 21.53125 -43.296875 24.65625 -43.296875 C 28.1875 -43.296875 31.515625 -42.582031 34.640625 -41.15625 C 37.765625 -39.738281 40.34375 -37.789062 42.375 -35.3125 L 36.234375 -29.65625 C 34.734375 -31.4375 33 -32.800781 31.03125 -33.75 C 29.0625 -34.707031 26.9375 -35.1875 24.65625 -35.1875 C 22.75 -35.1875 20.972656 -34.832031 19.328125 -34.125 C 17.679688 -33.414062 16.257812 -32.441406 15.0625 -31.203125 C 13.875 -29.960938 12.941406 -28.5 12.265625 -26.8125 C 11.597656 -25.132812 11.265625 -23.300781 11.265625 -21.3125 C 11.265625 -19.320312 11.609375 -17.472656 12.296875 -15.765625 C 12.984375 -14.066406 13.9375 -12.597656 15.15625 -11.359375 C 16.375 -10.117188 17.828125 -9.144531 19.515625 -8.4375 C 21.203125 -7.726562 23 -7.375 24.90625 -7.375 C 27.90625 -7.375 30.488281 -8.203125 32.65625 -9.859375 C 34.832031 -11.523438 36.1875 -13.65625 36.71875 -16.25 L 24.109375 -16.25 L 24.109375 -23.9375 L 46.15625 -23.9375 Z M 46.15625 -21.25 "/></g></g><g style="fill:#005eb8;fill-opacity:1;"><g transform="translate(83.158468, 278.328668)"><path style="stroke:none" d="M -0.40625 0 L 28.4375 -70.109375 L 45.265625 -70.109375 L 73.71875 0 L 57.984375 0 L 50.875 -18.421875 L 21.9375 -18.421875 L 14.71875 0 Z M 26.4375 -30.046875 L 46.46875 -30.046875 L 36.5625 -55.890625 Z M 26.4375 -30.046875 "/></g></g><g style="fill:#005eb8;fill-opacity:1;"><g transform="translate(157.073877, 278.328668)"><path style="stroke:none" d="M 6.3125 0 L 6.3125 -70.109375 L 41.46875 -70.109375 C 44.875 -70.109375 48.023438 -69.554688 50.921875 -68.453125 C 53.828125 -67.347656 56.316406 -65.828125 58.390625 -63.890625 C 60.460938 -61.960938 62.082031 -59.644531 63.25 -56.9375 C 64.414062 -54.226562 65 -51.273438 65 -48.078125 C 65 -44.941406 64.414062 -42.050781 63.25 -39.40625 C 62.082031 -36.769531 60.445312 -34.484375 58.34375 -32.546875 C 56.238281 -30.609375 53.75 -29.101562 50.875 -28.03125 C 48.007812 -26.96875 44.875 -26.4375 41.46875 -26.4375 L 20.828125 -26.4375 L 20.828125 0 Z M 39.859375 -57.59375 L 20.828125 -57.59375 L 20.828125 -38.453125 L 39.859375 -38.453125 C 42.992188 -38.453125 45.515625 -39.320312 47.421875 -41.0625 C 49.328125 -42.800781 50.28125 -45.101562 50.28125 -47.96875 C 50.28125 -50.84375 49.328125 -53.164062 47.421875 -54.9375 C 45.515625 -56.707031 42.992188 -57.59375 39.859375 -57.59375 Z M 39.859375 -57.59375 "/></g></g><g style="fill:#005eb8;fill-opacity:1;"><g transform="translate(225.881324, 278.328668)"><path style="stroke:none" d="M 6.3125 0 L 6.3125 -70.109375 L 41.46875 -70.109375 C 44.875 -70.109375 48.023438 -69.554688 50.921875 -68.453125 C 53.828125 -67.347656 56.316406 -65.828125 58.390625 -63.890625 C 60.460938 -61.960938 62.082031 -59.644531 63.25 -56.9375 C 64.414062 -54.226562 65 -51.273438 65 -48.078125 C 65 -44.941406 64.414062 -42.050781 63.25 -39.40625 C 62.082031 -36.769531 60.445312 -34.484375 58.34375 -32.546875 C 56.238281 -30.609375 53.75 -29.101562 50.875 -28.03125 C 48.007812 -26.96875 44.875 -26.4375 41.46875 -26.4375 L 20.828125 -26.4375 L 20.828125 0 Z M 39.859375 -57.59375 L 20.828125 -57.59375 L 20.828125 -38.453125 L 39.859375 -38.453125 C 42.992188 -38.453125 45.515625 -39.320312 47.421875 -41.0625 C 49.328125 -42.800781 50.28125 -45.101562 50.28125 -47.96875 C 50.28125 -50.84375 49.328125 -53.164062 47.421875 -54.9375 C 45.515625 -56.707031 42.992188 -57.59375 39.859375 -57.59375 Z M 39.859375 -57.59375 "/></g></g></g></svg>